<?xml version="1.0" encoding="UTF-8" standalone="no"?>
<!DOCTYPE svg PUBLIC "-//W3C//DTD SVG 1.1//EN"
 "http://www.w3.org/Graphics/SVG/1.1/DTD/svg11.dtd">
<!-- Generated by graphviz version 2.43.0 (0)
 -->
<!-- Title: snakemake_dag Pages: 1 -->
<svg width="693pt" height="548pt"
 viewBox="0.00 0.00 693.00 548.00" xmlns="http://www.w3.org/2000/svg" xmlns:xlink="http://www.w3.org/1999/xlink">
<g id="graph0" class="graph" transform="scale(1 1) rotate(0) translate(4 544)">
<title>snakemake_dag</title>
<polygon fill="white" stroke="transparent" points="-4,4 -4,-544 689,-544 689,4 -4,4"/>
<!-- 0 -->
<g id="node1" class="node">
<title>0</title>
<path fill="none" stroke="#56d8a9" stroke-width="2" d="M250,-108C250,-108 220,-108 220,-108 214,-108 208,-102 208,-96 208,-96 208,-84 208,-84 208,-78 214,-72 220,-72 220,-72 250,-72 250,-72 256,-72 262,-78 262,-84 262,-84 262,-96 262,-96 262,-102 256,-108 250,-108"/>
<text text-anchor="middle" x="235" y="-87.5" font-family="sans" font-size="10.00">all</text>
</g>
<!-- 1 -->
<g id="node2" class="node">
<title>1</title>
<path fill="none" stroke="#afd856" stroke-width="2" d="M134,-180C134,-180 12,-180 12,-180 6,-180 0,-174 0,-168 0,-168 0,-156 0,-156 0,-150 6,-144 12,-144 12,-144 134,-144 134,-144 140,-144 146,-150 146,-156 146,-156 146,-168 146,-168 146,-174 140,-180 134,-180"/>
<text text-anchor="middle" x="73" y="-159.5" font-family="sans" font-size="10.00">_copy__copy_samples_tsv</text>
</g>
<!-- 1&#45;&gt;0 -->
<g id="edge2" class="edge">
<title>1&#45;&gt;0</title>
<path fill="none" stroke="grey" stroke-width="2" d="M112.63,-143.88C138.88,-132.53 173.05,-117.77 198.6,-106.73"/>
<polygon fill="grey" stroke="grey" stroke-width="2" points="200.15,-109.87 207.94,-102.69 197.38,-103.44 200.15,-109.87"/>
</g>
<!-- 2 -->
<g id="node3" class="node">
<title>2</title>
<path fill="none" stroke="#70d856" stroke-width="2" d="M429,-252C429,-252 333,-252 333,-252 327,-252 321,-246 321,-240 321,-240 321,-228 321,-228 321,-222 327,-216 333,-216 333,-216 429,-216 429,-216 435,-216 441,-222 441,-228 441,-228 441,-240 441,-240 441,-246 435,-252 429,-252"/>
<text text-anchor="middle" x="381" y="-231.5" font-family="sans" font-size="10.00">_copy__merged_bam</text>
</g>
<!-- 2&#45;&gt;0 -->
<g id="edge3" class="edge">
<title>2&#45;&gt;0</title>
<path fill="none" stroke="grey" stroke-width="2" d="M370.62,-215.92C358.56,-196.94 337.31,-166.08 314,-144 301.09,-131.77 285.07,-120.46 270.83,-111.45"/>
<polygon fill="grey" stroke="grey" stroke-width="2" points="272.59,-108.42 262.24,-106.15 268.92,-114.38 272.59,-108.42"/>
</g>
<!-- 3 -->
<g id="node4" class="node">
<title>3</title>
<path fill="none" stroke="#d87556" stroke-width="2" d="M527,-324C527,-324 411,-324 411,-324 405,-324 399,-318 399,-312 399,-312 399,-300 399,-300 399,-294 405,-288 411,-288 411,-288 527,-288 527,-288 533,-288 539,-294 539,-300 539,-300 539,-312 539,-312 539,-318 533,-324 527,-324"/>
<text text-anchor="middle" x="469" y="-303.5" font-family="sans" font-size="10.00">alignment_samtools_sort</text>
</g>
<!-- 3&#45;&gt;2 -->
<g id="edge4" class="edge">
<title>3&#45;&gt;2</title>
<path fill="none" stroke="grey" stroke-width="2" d="M447.25,-287.7C436.16,-278.88 422.53,-268.03 410.51,-258.47"/>
<polygon fill="grey" stroke="grey" stroke-width="2" points="412.51,-255.59 402.5,-252.1 408.15,-261.07 412.51,-255.59"/>
</g>
<!-- 6 -->
<g id="node7" class="node">
<title>6</title>
<path fill="none" stroke="#59d856" stroke-width="2" d="M673,-180C673,-180 509,-180 509,-180 503,-180 497,-174 497,-168 497,-168 497,-156 497,-156 497,-150 503,-144 509,-144 509,-144 673,-144 673,-144 679,-144 685,-150 685,-156 685,-156 685,-168 685,-168 685,-174 679,-180 673,-180"/>
<text text-anchor="middle" x="591" y="-159.5" font-family="sans" font-size="10.00">alignment_samtools_extract_reads</text>
</g>
<!-- 3&#45;&gt;6 -->
<g id="edge9" class="edge">
<title>3&#45;&gt;6</title>
<path fill="none" stroke="grey" stroke-width="2" d="M539.25,-293.96C585.76,-285.05 640.74,-270.89 655,-252 664.64,-239.23 661.81,-230.48 655,-216 649.48,-204.26 639.93,-194.22 629.88,-186.15"/>
<polygon fill="grey" stroke="grey" stroke-width="2" points="631.88,-183.27 621.77,-180.09 627.69,-188.88 631.88,-183.27"/>
</g>
<!-- 10 -->
<g id="node11" class="node">
<title>10</title>
<path fill="none" stroke="#56d8c9" stroke-width="2" d="M633.5,-252C633.5,-252 508.5,-252 508.5,-252 502.5,-252 496.5,-246 496.5,-240 496.5,-240 496.5,-228 496.5,-228 496.5,-222 502.5,-216 508.5,-216 508.5,-216 633.5,-216 633.5,-216 639.5,-216 645.5,-222 645.5,-228 645.5,-228 645.5,-240 645.5,-240 645.5,-246 639.5,-252 633.5,-252"/>
<text text-anchor="middle" x="571" y="-231.5" font-family="sans" font-size="10.00">alignment_samtools_index</text>
</g>
<!-- 3&#45;&gt;10 -->
<g id="edge13" class="edge">
<title>3&#45;&gt;10</title>
<path fill="none" stroke="grey" stroke-width="2" d="M493.95,-287.88C507.04,-278.89 523.26,-267.76 537.44,-258.03"/>
<polygon fill="grey" stroke="grey" stroke-width="2" points="539.69,-260.73 545.95,-252.19 535.73,-254.96 539.69,-260.73"/>
</g>
<!-- 12 -->
<g id="node13" class="node">
<title>12</title>
<path fill="none" stroke="#56a9d8" stroke-width="2" d="M291.5,-252C291.5,-252 146.5,-252 146.5,-252 140.5,-252 134.5,-246 134.5,-240 134.5,-240 134.5,-228 134.5,-228 134.5,-222 140.5,-216 146.5,-216 146.5,-216 291.5,-216 291.5,-216 297.5,-216 303.5,-222 303.5,-228 303.5,-228 303.5,-240 303.5,-240 303.5,-246 297.5,-252 291.5,-252"/>
<text text-anchor="middle" x="219" y="-231.5" font-family="sans" font-size="10.00">picard_add_comments_to_bam</text>
</g>
<!-- 3&#45;&gt;12 -->
<g id="edge15" class="edge">
<title>3&#45;&gt;12</title>
<path fill="none" stroke="grey" stroke-width="2" d="M408.16,-287.97C372.47,-277.97 327.21,-265.3 289.91,-254.85"/>
<polygon fill="grey" stroke="grey" stroke-width="2" points="290.68,-251.44 280.11,-252.11 288.8,-258.18 290.68,-251.44"/>
</g>
<!-- 4 -->
<g id="node5" class="node">
<title>4</title>
<path fill="none" stroke="#d88d56" stroke-width="2" d="M608,-36C608,-36 452,-36 452,-36 446,-36 440,-30 440,-24 440,-24 440,-12 440,-12 440,-6 446,0 452,0 452,0 608,0 608,0 614,0 620,-6 620,-12 620,-12 620,-24 620,-24 620,-30 614,-36 608,-36"/>
<text text-anchor="middle" x="530" y="-15.5" font-family="sans" font-size="10.00">alignment_samtools_merge_bam</text>
</g>
<!-- 4&#45;&gt;3 -->
<g id="edge5" class="edge">
<title>4&#45;&gt;3</title>
<path fill="none" stroke="grey" stroke-width="2" d="M511.84,-36.41C503.04,-46.01 493.26,-58.68 488,-72 460.34,-142.11 462.81,-233.1 466.25,-277.79"/>
<polygon fill="grey" stroke="grey" stroke-width="2" points="462.78,-278.2 467.11,-287.87 469.75,-277.6 462.78,-278.2"/>
</g>
<!-- 5 -->
<g id="node6" class="node">
<title>5</title>
<path fill="none" stroke="#d85656" stroke-width="2" d="M673,-108C673,-108 509,-108 509,-108 503,-108 497,-102 497,-96 497,-96 497,-84 497,-84 497,-78 503,-72 509,-72 509,-72 673,-72 673,-72 679,-72 685,-78 685,-84 685,-84 685,-96 685,-96 685,-102 679,-108 673,-108"/>
<text text-anchor="middle" x="591" y="-87.5" font-family="sans" font-size="10.00">alignment_picard_mark_duplicates</text>
</g>
<!-- 5&#45;&gt;4 -->
<g id="edge7" class="edge">
<title>5&#45;&gt;4</title>
<path fill="none" stroke="grey" stroke-width="2" d="M575.92,-71.7C568.61,-63.3 559.69,-53.07 551.66,-43.86"/>
<polygon fill="grey" stroke="grey" stroke-width="2" points="554.11,-41.34 544.91,-36.1 548.84,-45.94 554.11,-41.34"/>
</g>
<!-- 6&#45;&gt;5 -->
<g id="edge8" class="edge">
<title>6&#45;&gt;5</title>
<path fill="none" stroke="grey" stroke-width="2" d="M591,-143.7C591,-135.98 591,-126.71 591,-118.11"/>
<polygon fill="grey" stroke="grey" stroke-width="2" points="594.5,-118.1 591,-108.1 587.5,-118.1 594.5,-118.1"/>
</g>
<!-- 7 -->
<g id="node8" class="node">
<title>7</title>
<path fill="none" stroke="#8fd856" stroke-width="2" d="M536.5,-396C536.5,-396 401.5,-396 401.5,-396 395.5,-396 389.5,-390 389.5,-384 389.5,-384 389.5,-372 389.5,-372 389.5,-366 395.5,-360 401.5,-360 401.5,-360 536.5,-360 536.5,-360 542.5,-360 548.5,-366 548.5,-372 548.5,-372 548.5,-384 548.5,-384 548.5,-390 542.5,-396 536.5,-396"/>
<text text-anchor="middle" x="469" y="-375.5" font-family="sans" font-size="10.00">alignment_bwa_mem_merge</text>
</g>
<!-- 7&#45;&gt;3 -->
<g id="edge6" class="edge">
<title>7&#45;&gt;3</title>
<path fill="none" stroke="grey" stroke-width="2" d="M469,-359.7C469,-351.98 469,-342.71 469,-334.11"/>
<polygon fill="grey" stroke="grey" stroke-width="2" points="472.5,-334.1 469,-324.1 465.5,-334.1 472.5,-334.1"/>
</g>
<!-- 8 -->
<g id="node9" class="node">
<title>8</title>
<path fill="none" stroke="#d8cb56" stroke-width="2" d="M518,-468C518,-468 420,-468 420,-468 414,-468 408,-462 408,-456 408,-456 408,-444 408,-444 408,-438 414,-432 420,-432 420,-432 518,-432 518,-432 524,-432 530,-438 530,-444 530,-444 530,-456 530,-456 530,-462 524,-468 518,-468"/>
<text text-anchor="middle" x="469" y="-447.5" font-family="sans" font-size="10.00">alignment_bwa_mem</text>
</g>
<!-- 8&#45;&gt;7 -->
<g id="edge11" class="edge">
<title>8&#45;&gt;7</title>
<path fill="none" stroke="grey" stroke-width="2" d="M469,-431.7C469,-423.98 469,-414.71 469,-406.11"/>
<polygon fill="grey" stroke="grey" stroke-width="2" points="472.5,-406.1 469,-396.1 465.5,-406.1 472.5,-406.1"/>
</g>
<!-- 9 -->
<g id="node10" class="node">
<title>9</title>
<path fill="none" stroke="#56d873" stroke-width="2" d="M521.5,-540C521.5,-540 416.5,-540 416.5,-540 410.5,-540 404.5,-534 404.5,-528 404.5,-528 404.5,-516 404.5,-516 404.5,-510 410.5,-504 416.5,-504 416.5,-504 521.5,-504 521.5,-504 527.5,-504 533.5,-510 533.5,-516 533.5,-516 533.5,-528 533.5,-528 533.5,-534 527.5,-540 521.5,-540"/>
<text text-anchor="middle" x="469" y="-519.5" font-family="sans" font-size="10.00">prealignment_fastp_pe</text>
</g>
<!-- 9&#45;&gt;8 -->
<g id="edge12" class="edge">
<title>9&#45;&gt;8</title>
<path fill="none" stroke="grey" stroke-width="2" d="M469,-503.7C469,-495.98 469,-486.71 469,-478.11"/>
<polygon fill="grey" stroke="grey" stroke-width="2" points="472.5,-478.1 469,-468.1 465.5,-478.1 472.5,-478.1"/>
</g>
<!-- 10&#45;&gt;6 -->
<g id="edge10" class="edge">
<title>10&#45;&gt;6</title>
<path fill="none" stroke="grey" stroke-width="2" d="M575.94,-215.7C578.17,-207.9 580.85,-198.51 583.33,-189.83"/>
<polygon fill="grey" stroke="grey" stroke-width="2" points="586.73,-190.68 586.11,-180.1 580,-188.76 586.73,-190.68"/>
</g>
<!-- 11 -->
<g id="node12" class="node">
<title>11</title>
<path fill="none" stroke="#56d892" stroke-width="2" d="M293.5,-180C293.5,-180 176.5,-180 176.5,-180 170.5,-180 164.5,-174 164.5,-168 164.5,-168 164.5,-156 164.5,-156 164.5,-150 170.5,-144 176.5,-144 176.5,-144 293.5,-144 293.5,-144 299.5,-144 305.5,-150 305.5,-156 305.5,-156 305.5,-168 305.5,-168 305.5,-174 299.5,-180 293.5,-180"/>
<text text-anchor="middle" x="235" y="-159.5" font-family="sans" font-size="10.00">_copy__commented_bam</text>
</g>
<!-- 11&#45;&gt;0 -->
<g id="edge1" class="edge">
<title>11&#45;&gt;0</title>
<path fill="none" stroke="grey" stroke-width="2" d="M235,-143.7C235,-135.98 235,-126.71 235,-118.11"/>
<polygon fill="grey" stroke="grey" stroke-width="2" points="238.5,-118.1 235,-108.1 231.5,-118.1 238.5,-118.1"/>
</g>
<!-- 12&#45;&gt;11 -->
<g id="edge14" class="edge">
<title>12&#45;&gt;11</title>
<path fill="none" stroke="grey" stroke-width="2" d="M222.96,-215.7C224.72,-207.98 226.84,-198.71 228.8,-190.11"/>
<polygon fill="grey" stroke="grey" stroke-width="2" points="232.27,-190.63 231.09,-180.1 225.45,-189.07 232.27,-190.63"/>
</g>
</g>
</svg>
